<svg height="30" viewBox="0 0 30.383 30" width="30.383" xmlns="http://www.w3.org/2000/svg"><g fill-rule="evenodd"><path d="m75.867 255.942a7.61 7.61 0 1 0 -1.552.025q-.03-2.195-.062-4.389a3.116 3.116 0 0 1 -2.478-3.064 3.217 3.217 0 0 1 6.434-.087 3.267 3.267 0 0 1 -2.407 3.091z" fill="#006d29" transform="translate(-59.952 -225.967)"/><path d="m115.46 216.983a7.452 7.452 0 1 0 -.016 1.52q-2.217-.029-4.433-.055a3.129 3.129 0 0 1 -3.158 2.344 3.15 3.15 0 1 1 .082-6.3 3.279 3.279 0 0 1 3.057 2.437z" fill="#c20010" transform="translate(-85.077 -202.509)"/><path d="m36.291 216.983a7.452 7.452 0 1 1 .016 1.52q2.217-.029 4.433-.055a3.129 3.129 0 0 0 3.159 2.344 3.15 3.15 0 1 0 -.083-6.3 3.279 3.279 0 0 0 -3.057 2.437z" fill="#c20010" transform="translate(-36.291 -202.509)"/><path d="m75.867 177.973a7.61 7.61 0 1 1 -1.552-.025q-.03 2.195-.062 4.389a3.117 3.117 0 0 0 -2.478 3.064 3.217 3.217 0 0 0 6.434.087 3.267 3.267 0 0 0 -2.409-3.088z" fill="#006d29" transform="translate(-59.952 -177.948)"/><path d="m67.363 225.115a7.482 7.482 0 0 0 7.737-7.585 7.75 7.75 0 0 0 -7.736 7.585m7.736-7.585c.054-4.132-3.543-7.3-7.734-7.357-.055 4.132 3.542 7.301 7.734 7.357zm0 0a7.575 7.575 0 0 0 7.511 7.6 7.575 7.575 0 0 0 -7.511-7.6m0 0a7.375 7.375 0 0 0 7.525-7.358 7.375 7.375 0 0 0 -7.525 7.358" fill="#292827" transform="translate(-59.954 -202.51)"/></g></svg>